<svg width="24" height="24" viewBox="0 0 24 24" fill="none" xmlns="http://www.w3.org/2000/svg">
<g id="BellSimpleSlash">
<path id="Vector" d="M4.5 3.75L19.5 20.25" stroke="#7B7B7B" stroke-linecap="round" stroke-linejoin="round"/>
<path id="Vector_2" d="M9 21H15" stroke="#7B7B7B" stroke-linecap="round" stroke-linejoin="round"/>
<path id="Vector_3" d="M8.67188 3.88125C9.69819 3.29186 10.8634 2.9876 12.0469 3C15.7594 3.02812 18.7313 6.1125 18.7313 9.83437V10.5C18.7313 13.0031 19.125 14.7187 19.575 15.8719" stroke="#7B7B7B" stroke-linecap="round" stroke-linejoin="round"/>
<path id="Vector_4" d="M17.4562 18H4.59368C4.46087 18.0005 4.3303 17.9657 4.21532 17.8992C4.10035 17.8327 4.0051 17.7369 3.93931 17.6215C3.87351 17.5062 3.83954 17.3754 3.84086 17.2426C3.84218 17.1098 3.87874 16.9797 3.94681 16.8656C4.56556 15.8062 5.26868 13.8562 5.26868 10.5V9.75C5.26791 8.37786 5.68304 7.0377 6.45931 5.90625" stroke="#7B7B7B" stroke-linecap="round" stroke-linejoin="round"/>
</g>
</svg>
