<svg width="17" height="16" viewBox="0 0 17 16" fill="none" xmlns="http://www.w3.org/2000/svg">
<g id="line/buildings/building-line">
<path id="Vector" d="M14.5001 12.6667H15.8334V14H1.16675V12.6667H2.50008V2.66667C2.50008 2.48986 2.57032 2.32029 2.69534 2.19526C2.82037 2.07024 2.98994 2 3.16675 2H9.83342C10.0102 2 10.1798 2.07024 10.3048 2.19526C10.4298 2.32029 10.5001 2.48986 10.5001 2.66667V12.6667H13.1667V7.33333H11.8334V6H13.8334C14.0102 6 14.1798 6.07024 14.3048 6.19526C14.4298 6.32029 14.5001 6.48986 14.5001 6.66667V12.6667ZM3.83341 3.33333V12.6667H9.16675V3.33333H3.83341ZM5.16675 7.33333H7.83342V8.66667H5.16675V7.33333ZM5.16675 4.66667H7.83342V6H5.16675V4.66667Z" fill="#FFAF3C"/>
</g>
</svg>
