<svg width="25" height="24" viewBox="0 0 25 24" fill="none" xmlns="http://www.w3.org/2000/svg">
<g id="elevator-lift-svgrepo-com 1">
<g id="Group">
<g id="Group_2">
<g id="Group_3">
<path id="Vector" d="M23.55 0H1.95003C1.71003 0 1.55005 0.159984 1.55005 0.399984V23.6C1.55005 23.84 1.71003 24 1.95003 24H4.35003H11.55H18.75H23.55C23.79 24 23.95 23.84 23.95 23.6V0.399984C23.95 0.159984 23.79 0 23.55 0ZM11.15 23.2H4.75002V5.60002H11.15L11.15 23.2ZM11.95 23.2V5.60002H18.35V23.2L11.95 23.2ZM23.15 23.2H19.1501V5.19998C19.1501 4.95998 18.9901 4.8 18.7501 4.8H11.55H4.35003C4.11003 4.8 3.95005 4.95998 3.95005 5.19998V23.2H2.35002V0.800016H23.15L23.15 23.2Z" fill="black"/>
<path id="Vector_2" d="M9.5501 3.99998H13.5501C14.2301 3.99998 14.7501 3.47999 14.7501 2.79998C14.7501 2.11996 14.2301 1.59998 13.5501 1.59998H9.5501C8.87008 1.59998 8.3501 2.11996 8.3501 2.79998C8.3501 3.47999 8.87013 3.99998 9.5501 3.99998ZM9.5501 2.39999H13.5501C13.7901 2.39999 13.9501 2.55998 13.9501 2.79998C13.9501 3.03998 13.7901 3.19996 13.5501 3.19996H9.5501C9.3101 3.19996 9.15011 3.03998 9.15011 2.79998C9.15011 2.55998 9.3101 2.39999 9.5501 2.39999Z" fill="#22BA68"/>
<path id="Vector_3" d="M20.63 13.48L21.15 12.96L21.67 13.48C21.75 13.56 21.83 13.6 21.95 13.6C22.07 13.6 22.15 13.56 22.23 13.48C22.39 13.32 22.39 13.08 22.23 12.92L21.43 12.12C21.27 11.96 21.03 11.96 20.87 12.12L20.0699 12.92C19.91 13.08 19.91 13.32 20.0699 13.48C20.23 13.6401 20.47 13.6401 20.63 13.48Z" fill="#22BA68"/>
<path id="Vector_4" d="M20.87 16.68C20.95 16.76 21.0299 16.8 21.1499 16.8C21.2699 16.8 21.35 16.76 21.4299 16.68L22.2299 15.88C22.3899 15.72 22.3899 15.48 22.2299 15.3199C22.07 15.16 21.83 15.16 21.6699 15.3199L21.1499 15.84L20.63 15.32C20.47 15.16 20.23 15.16 20.0699 15.32C19.91 15.48 19.91 15.72 20.0699 15.88L20.87 16.68Z" fill="#22BA68"/>
</g>
</g>
</g>
</g>
</svg>
