<svg width="308" height="240" viewBox="0 0 308 240" fill="none" xmlns="http://www.w3.org/2000/svg">
<path d="M153.394 0L44.2581 98.1176H74.017V98.1526L153.394 26.6719L212.921 80.1731V167.482H173.236V137.758H199.34L128.585 74.9436L57.839 137.758H83.9424V187.307H232.763V98.1176H262.53L153.394 0Z" fill="white"/>
<path d="M10.284 220.376C8.95476 220.376 7.67801 220.534 6.47121 220.831C5.28191 221.111 4.21503 221.461 3.28808 221.88C2.37861 222.283 1.67902 222.632 1.1893 222.93V218.697C1.7927 218.33 2.51853 217.954 3.35803 217.578C4.19754 217.211 5.18571 216.905 6.33129 216.668C7.46813 216.441 8.79735 216.319 10.319 216.319C12.8375 216.319 14.945 216.826 16.6503 217.823C18.3468 218.802 19.6323 220.184 20.498 221.95C21.3812 223.726 21.8272 225.798 21.8272 228.177C21.8272 230.608 21.4075 232.707 20.568 234.473C19.7459 236.222 18.5217 237.577 16.8951 238.531C15.2598 239.493 13.2572 239.965 10.8786 239.965C8.26391 239.965 6.1564 239.466 4.54734 238.461C2.95577 237.437 1.80145 236.003 1.08437 234.158C0.35854 232.322 0 230.162 0 227.687V226.568H16.7552C16.6153 224.635 16.0031 223.122 14.9363 222.02C13.8869 220.927 12.3303 220.376 10.284 220.376ZM10.8786 235.907C12.5314 235.907 13.8869 235.452 14.9363 234.543C15.9856 233.616 16.5628 232.296 16.6852 230.59H5.03705C5.03705 232.269 5.46555 233.581 6.33129 234.508C7.18829 235.444 8.7099 235.907 10.8786 235.907Z" fill="white"/>
<path d="M41.2983 238.041L33.4979 223.069V239.65H29.1954V217.123H35.1769L41.3682 229.226L47.5246 217.123H53.5061V239.65H49.0987V223.104L41.2983 238.041Z" fill="white"/>
<path d="M61.0411 239.65V217.123H65.6933V235.522H78.0411V239.65H61.0411Z" fill="white"/>
<path d="M82.5484 239.65L91.818 217.123H97.2398L106.37 239.65H101.332L99.0238 233.738H89.7193L87.4106 239.65H82.5484ZM91.1884 229.995H97.6246L94.4415 221.705L91.1884 229.995Z" fill="white"/>
<path d="M111.738 239.65V217.123H116.391V227.232L126.255 217.123H131.956L121.078 227.827L132.446 239.65H126.22L116.391 229.086V239.65H111.738Z" fill="white"/>
<path d="M147.576 239.65V217.123H158.874C159.967 217.123 160.982 217.298 161.917 217.648C162.844 217.997 163.64 218.487 164.296 219.117C164.969 219.746 165.494 220.498 165.87 221.355C166.237 222.221 166.43 223.166 166.43 224.189C166.43 225.221 166.237 226.148 165.87 226.987C165.494 227.827 164.969 228.561 164.296 229.191C163.614 229.82 162.809 230.31 161.882 230.66C160.973 230.992 159.967 231.15 158.874 231.15H152.228V239.65H147.576ZM158.35 221.145H152.228V227.302H158.35C159.346 227.302 160.151 227.022 160.763 226.462C161.393 225.903 161.708 225.159 161.708 224.224C161.708 223.314 161.393 222.58 160.763 222.02C160.151 221.443 159.346 221.145 158.35 221.145Z" fill="white"/>
<path d="M195.938 228.387C195.938 229.996 195.623 231.517 194.994 232.934C194.364 234.36 193.507 235.593 192.44 236.642C191.391 237.691 190.132 238.522 188.662 239.126C187.211 239.703 185.663 240 184.01 240C182.349 240 180.792 239.703 179.323 239.126C177.871 238.522 176.612 237.691 175.545 236.642C174.47 235.593 173.621 234.36 172.992 232.934C172.379 231.517 172.082 229.996 172.082 228.387C172.082 226.778 172.379 225.265 172.992 223.839C173.621 222.423 174.47 221.181 175.545 220.132C176.612 219.082 177.871 218.269 179.323 217.683C180.792 217.08 182.349 216.774 184.01 216.774C185.663 216.774 187.211 217.08 188.662 217.683C190.132 218.269 191.391 219.082 192.44 220.132C193.507 221.181 194.364 222.423 194.994 223.839C195.623 225.265 195.938 226.778 195.938 228.387ZM191.146 228.387C191.146 227.337 190.954 226.375 190.586 225.484C190.21 224.6 189.712 223.831 189.082 223.175C188.453 222.502 187.692 221.977 186.809 221.601C185.943 221.233 185.007 221.041 184.01 221.041C182.978 221.041 182.034 221.233 181.177 221.601C180.311 221.977 179.55 222.502 178.903 223.175C178.274 223.831 177.766 224.6 177.399 225.484C177.049 226.375 176.874 227.337 176.874 228.387C176.874 229.419 177.049 230.381 177.399 231.29C177.766 232.182 178.274 232.96 178.903 233.634C179.55 234.29 180.311 234.806 181.177 235.173C182.034 235.549 182.978 235.733 184.01 235.733C185.007 235.733 185.943 235.549 186.809 235.173C187.692 234.806 188.453 234.29 189.082 233.634C189.712 232.96 190.21 232.182 190.586 231.29C190.954 230.381 191.146 229.419 191.146 228.387Z" fill="white"/>
<path d="M202.583 239.65V217.123H213.602C214.721 217.123 215.753 217.298 216.715 217.648C217.668 217.98 218.481 218.452 219.163 219.082C219.863 219.694 220.396 220.428 220.772 221.285C221.166 222.125 221.367 223.069 221.367 224.119C221.367 225.518 220.956 226.777 220.143 227.897C219.347 229.016 218.289 229.847 216.96 230.38L221.962 239.65H216.75L212.342 231.01H207.235V239.65H202.583ZM213.182 221.145H207.235V227.197H213.182C214.231 227.197 215.071 226.917 215.7 226.357C216.33 225.798 216.645 225.063 216.645 224.154C216.645 223.271 216.33 222.545 215.7 221.985C215.071 221.425 214.231 221.145 213.182 221.145Z" fill="white"/>
<path d="M226.465 221.25V217.123H246.264V221.25H238.708V239.65H234.056V221.25H226.465Z" fill="white"/>
<path d="M250.179 239.65L259.448 217.123H264.87L274 239.65H268.963L266.654 233.738H257.35L255.041 239.65H250.179ZM258.819 229.995H265.255L262.072 221.705L258.819 229.995Z" fill="white"/>
<path d="M279.369 239.65V217.123H284.021V235.522H296.369V239.65H279.369Z" fill="white"/>
<path d="M303.045 239.65V217.123H307.697V239.65H303.045Z" fill="white"/>
</svg>
