<svg width="25" height="24" viewBox="0 0 25 24" fill="none" xmlns="http://www.w3.org/2000/svg">
<g id="garage-svgrepo-com 1" clip-path="url(#clip0_1302_13641)">
<g id="Group">
<path id="Vector" d="M24.5414 7.70973L12.9552 1.08904C12.8277 1.01622 12.6717 1.01622 12.5447 1.08904L0.958506 7.70973C0.795472 7.80284 0.71561 7.99401 0.764023 8.17525C0.812023 8.35649 0.975886 8.4827 1.16375 8.4827H2.81892V22.1379H1.16375V22.9655H3.23271H4.47409H21.0258H22.2672H24.3362V22.1379H22.681V8.4827H24.3362C24.524 8.4827 24.6879 8.35649 24.7359 8.17525C24.7843 7.9936 24.7044 7.80242 24.5414 7.70973ZM4.2338 10.5517V13.0344V15.5172C4.2338 15.5172 4.20127 17.0934 4.2338 18.1062C4.26381 19.0406 4.2338 20.5 4.2338 20.5V22.1379H3.64651V8.4827H4.2338V10.5517ZM20.612 22.1379H4.88789V20.8965H20.612V22.1379ZM20.612 20.0689H4.88789V18.4137H20.612V20.0689ZM20.612 17.5861H4.88789V15.931H20.612V17.5861ZM20.612 15.1034H4.88789V13.4482H20.612V15.1034ZM20.612 12.6206H4.88789V10.9655H20.612V12.6206ZM20.612 10.1379H4.88789V8.4827H20.612V10.1379ZM21.8534 22.1379H21.249V20.4827V17.9999V15.5172V13.0344V10.5517V8.4827H21.8534V22.1379ZM2.72209 7.65511L12.75 1.92449L22.7778 7.65511H2.72209Z" fill="black"/>
<path id="Rectangle 362" d="M4.875 10H20.6211V11.0234L4.875 11V10Z" fill="#22BA68"/>
<path id="Rectangle 363" d="M4.875 12.5H20.6211V13.5234L4.875 13.5V12.5Z" fill="#22BA68"/>
<path id="Rectangle 364" d="M4.875 15H20.6211V16.0234L4.875 16V15Z" fill="#22BA68"/>
<path id="Rectangle 365" d="M4.875 17.5H20.6211V18.5234L4.875 18.5V17.5Z" fill="#22BA68"/>
<path id="Rectangle 366" d="M4.875 20H20.6211V21.0234L4.875 21V20Z" fill="#22BA68"/>
</g>
</g>
<defs>
<clipPath id="clip0_1302_13641">
<rect width="24" height="24" fill="white" transform="translate(0.75)"/>
</clipPath>
</defs>
</svg>
