<svg width="17" height="16" viewBox="0 0 17 16" fill="none" xmlns="http://www.w3.org/2000/svg">
<g id="Globe">
<path id="Vector" d="M8.5 14C11.8137 14 14.5 11.3137 14.5 8C14.5 4.68629 11.8137 2 8.5 2C5.18629 2 2.5 4.68629 2.5 8C2.5 11.3137 5.18629 14 8.5 14Z" stroke="#2972FD" stroke-miterlimit="10"/>
<path id="Vector_2" d="M2.84375 6H14.1562" stroke="#2972FD" stroke-linecap="round" stroke-linejoin="round"/>
<path id="Vector_3" d="M2.84375 10H14.1562" stroke="#2972FD" stroke-linecap="round" stroke-linejoin="round"/>
<path id="Vector_4" d="M8.5 13.8375C9.88071 13.8375 11 11.224 11 8.00001C11 4.77604 9.88071 2.16251 8.5 2.16251C7.11929 2.16251 6 4.77604 6 8.00001C6 11.224 7.11929 13.8375 8.5 13.8375Z" stroke="#2972FD" stroke-miterlimit="10"/>
</g>
</svg>
