<svg width="25" height="24" viewBox="0 0 25 24" fill="none" xmlns="http://www.w3.org/2000/svg">
<path d="M13.0344 19.8656L20.6281 12.2719C22.4938 10.3969 22.7656 7.33126 21.0031 5.37188C20.5611 4.87811 20.0231 4.47965 19.4218 4.20084C18.8206 3.92203 18.1689 3.76872 17.5064 3.7503C16.844 3.73187 16.1847 3.84871 15.5689 4.09367C14.9532 4.33863 14.3938 4.70657 13.925 5.17501L12.5 6.60938L11.2719 5.37188C9.39688 3.50626 6.33126 3.23438 4.37188 4.99688C3.87811 5.4389 3.47965 5.97695 3.20084 6.57816C2.92203 7.17938 2.76872 7.83112 2.7503 8.49358C2.73187 9.15604 2.84871 9.8153 3.09367 10.4311C3.33863 11.0469 3.70657 11.6062 4.17501 12.075L11.9656 19.8656C12.1078 20.0065 12.2999 20.0855 12.5 20.0855C12.7001 20.0855 12.8922 20.0065 13.0344 19.8656V19.8656Z" stroke="#333333" stroke-opacity="0.6" stroke-linecap="round" stroke-linejoin="round"/>
</svg>
