<svg width="24" height="24" viewBox="0 0 24 24" fill="none" xmlns="http://www.w3.org/2000/svg">
<path d="M12.5344 19.8656L20.1281 12.2719C21.9938 10.3969 22.2656 7.33125 20.5031 5.37187C20.0611 4.8781 19.5231 4.47964 18.9219 4.20083C18.3206 3.92202 17.6689 3.76872 17.0064 3.75029C16.344 3.73186 15.6847 3.8487 15.0689 4.09366C14.4532 4.33862 13.8938 4.70656 13.425 5.175L12 6.60937L10.7719 5.37187C8.89688 3.50625 5.83126 3.23437 3.87188 4.99687C3.37811 5.43889 2.97965 5.97694 2.70084 6.57816C2.42203 7.17937 2.26872 7.83111 2.2503 8.49357C2.23187 9.15603 2.34871 9.81529 2.59367 10.4311C2.83863 11.0468 3.20657 11.6062 3.67501 12.075L11.4656 19.8656C11.6078 20.0065 11.7999 20.0855 12 20.0855C12.2001 20.0855 12.3922 20.0065 12.5344 19.8656Z" fill="#FF0000" stroke="#FF0000" stroke-linecap="round" stroke-linejoin="round"/>
</svg>
