<svg width="25" height="24" viewBox="0 0 25 24" fill="none" xmlns="http://www.w3.org/2000/svg">
<g id="heating-svgrepo-com 1" clip-path="url(#clip0_1302_13632)">
<g id="Group">
<g id="Group_2">
<path id="Vector" d="M21.7967 7.70496C21.4487 7.70496 21.1664 7.98743 21.1664 8.33514V10.7999H20.4619V10.2382C20.4619 8.84145 19.3253 7.70496 17.929 7.70496C17.1703 7.70496 16.4909 8.04203 16.0259 8.57172C15.561 8.04203 14.8815 7.70496 14.1232 7.70496C13.3646 7.70496 12.6847 8.04203 12.2202 8.57172C11.7553 8.04203 11.0756 7.70496 10.3172 7.70496C9.55888 7.70496 8.87903 8.04203 8.4143 8.57172C7.94958 8.04203 7.26972 7.70496 6.51127 7.70496C5.11472 7.70496 3.97822 8.84154 3.97822 10.2382V10.7999H2.7044C2.35669 10.7999 2.07422 11.0822 2.07422 11.4301C2.07422 11.7779 2.35669 12.0603 2.7044 12.0603H3.97725V21.4668C3.97725 22.8635 5.11384 24 6.5103 24C7.26875 24 7.94861 23.6631 8.41333 23.1334C8.87806 23.6631 9.55774 24 10.3162 24C11.0746 24 11.7543 23.6631 12.2191 23.1334C12.6837 23.6631 13.3636 24 14.1219 24C14.8802 24 15.5604 23.6631 16.025 23.1334C16.4894 23.6631 17.1697 24 17.928 24C19.3247 24 20.4612 22.8634 20.4612 21.4668V12.0608H21.7956C22.1435 12.0608 22.4258 11.7783 22.4258 11.4306V8.33558C22.4269 7.98743 22.1442 7.70496 21.7967 7.70496ZM19.2014 12.0608V21.4672C19.2014 22.1692 18.6306 22.74 17.929 22.74C17.2273 22.74 16.6562 22.1693 16.6562 21.4672V12.0608V10.8003V10.2386C16.6562 9.53678 17.2273 8.96576 17.929 8.96576C18.6306 8.96576 19.2014 9.53669 19.2014 10.2386V10.8003V12.0608ZM15.3953 21.4668C15.3953 22.1688 14.8242 22.7396 14.1225 22.7396C13.4209 22.7396 12.8497 22.1689 12.8497 21.4668V12.0608V10.8003V10.2386C12.8497 9.53678 13.4208 8.96576 14.1225 8.96576C14.8241 8.96576 15.3953 9.53669 15.3953 10.2386V10.8003V12.0608V21.4668ZM11.5895 21.4668C11.5895 22.1688 11.0186 22.7396 10.3169 22.7396C9.61533 22.7396 9.04431 22.1689 9.04431 21.4668V12.0608V10.8003V10.2386C9.04431 9.53678 9.61533 8.96576 10.3169 8.96576C11.0186 8.96576 11.5895 9.53669 11.5895 10.2386V10.8003V12.0608V21.4668ZM7.78341 21.4668C7.78341 22.1688 7.21222 22.7396 6.51065 22.7396C5.80899 22.7396 5.23806 22.1689 5.23806 21.4668V12.0608V10.8003V10.2386C5.23806 9.53678 5.80899 8.96576 6.51065 8.96576C7.21222 8.96576 7.78341 9.53669 7.78341 10.2386V10.8003V12.0608V21.4668Z" fill="black"/>
<path id="Vector_2" d="M8.0278 0.211445C7.45977 0.889104 7.22601 1.60668 7.50751 2.46817C7.78533 3.31805 8.63856 4.09752 7.95764 4.97317C7.46505 5.60625 8.35037 6.50546 8.84868 5.86437C9.40958 5.1432 9.65205 4.4076 9.36896 3.51261C9.11357 2.7051 8.23959 1.9128 8.91883 1.10265C9.43745 0.484074 8.55073 -0.412409 8.0278 0.211445Z" fill="#22BA68"/>
<path id="Vector_3" d="M12.6308 5.86425C13.1922 5.14307 13.4342 4.40748 13.1511 3.51249C12.8959 2.70498 12.0217 1.91268 12.701 1.10253C13.2196 0.483952 12.3325 -0.412531 11.81 0.211323C11.2419 0.888982 11.0082 1.60655 11.2898 2.46805C11.5676 3.31793 12.4208 4.0974 11.7399 4.97304C11.2469 5.60622 12.1321 6.50534 12.6308 5.86425Z" fill="#22BA68"/>
<path id="Vector_4" d="M15.5907 0.211445C15.0229 0.889104 14.789 1.60668 15.0704 2.46817C15.3486 3.31805 16.2017 4.09752 15.521 4.97317C15.0282 5.60625 15.9133 6.50546 16.4118 5.86437C16.9727 5.1432 17.2152 4.4076 16.9321 3.51261C16.6765 2.7051 15.8024 1.9128 16.4819 1.10265C17.0005 0.484074 16.1139 -0.412409 15.5907 0.211445Z" fill="#22BA68"/>
</g>
</g>
</g>
<defs>
<clipPath id="clip0_1302_13632">
<rect width="24" height="24" fill="white" transform="translate(0.25)"/>
</clipPath>
</defs>
</svg>
