<svg width="25" height="24" viewBox="0 0 25 24" fill="none" xmlns="http://www.w3.org/2000/svg">
<g id="Iconly/Bold/Profile">
<g id="Profile">
<path id="Profile_2" d="M12.5 13.0831C15.7151 13.0831 18.294 10.5043 18.294 7.29105H17.294C17.294 9.95183 15.1631 12.0831 12.5 12.0831V13.0831ZM6.70601 7.29105C6.70601 10.5044 9.28593 13.0831 12.5 13.0831V12.0831C9.83787 12.0831 7.70601 9.95177 7.70601 7.29105H6.70601ZM12.5 1.5C9.28605 1.5 6.70601 4.07759 6.70601 7.29105H7.70601C7.70601 4.63046 9.83774 2.5 12.5 2.5V1.5ZM18.294 7.29105C18.294 4.07765 15.715 1.5 12.5 1.5V2.5C15.1632 2.5 17.294 4.6304 17.294 7.29105H18.294ZM4 18.575C4 19.3798 4.27559 20.0544 4.77141 20.5954C5.2569 21.1252 5.93235 21.5047 6.70648 21.7788C8.24807 22.3247 10.319 22.5 12.5 22.5V21.5C10.3433 21.5 8.4143 21.3227 7.0403 20.8362C6.35663 20.5941 5.84539 20.2873 5.50864 19.9198C5.18221 19.5636 5 19.1302 5 18.575H4ZM12.5 14.6739C10.3314 14.6739 8.26102 14.8428 6.71716 15.382C5.94197 15.6527 5.26404 16.0287 4.77621 16.5561C4.27773 17.095 4 17.7689 4 18.575H5C5 18.0205 5.18294 17.589 5.5103 17.2351C5.84831 16.8697 6.36139 16.5655 7.04687 16.3261C8.42436 15.845 10.3539 15.6739 12.5 15.6739V14.6739ZM21 18.599C21 17.7942 20.7245 17.1195 20.2288 16.5785C19.7433 16.0487 19.068 15.6693 18.2939 15.3951C16.7524 14.8492 14.6815 14.6739 12.5 14.6739V15.6739C14.6572 15.6739 16.5862 15.8512 17.9601 16.3377C18.6437 16.5799 19.1548 16.8866 19.4915 17.2541C19.8178 17.6102 20 18.0437 20 18.599H21ZM12.5 22.5C14.6686 22.5 16.739 22.3311 18.2828 21.7919C19.058 21.5212 19.736 21.1452 20.2238 20.6178C20.7223 20.0789 21 19.405 21 18.599H20C20 19.1535 19.8171 19.5849 19.4897 19.9388C19.1517 20.3042 18.6386 20.6084 17.9531 20.8478C16.5756 21.3289 14.646 21.5 12.5 21.5V22.5Z" fill="#333333" fill-opacity="0.6"/>
</g>
</g>
</svg>
