<svg width="22" height="22" viewBox="0 0 22 22" fill="none" xmlns="http://www.w3.org/2000/svg">
<g id="SlidersHorizontal">
<path id="Vector" d="M12.6875 14.7125H3.57495" stroke="#FFAF3C" stroke-width="1.2" stroke-linecap="round" stroke-linejoin="round"/>
<path id="Vector_2" d="M18.425 14.7125H16.0625" stroke="#FFAF3C" stroke-width="1.2" stroke-linecap="round" stroke-linejoin="round"/>
<path id="Vector_3" d="M14.375 16.4C15.307 16.4 16.0625 15.6445 16.0625 14.7125C16.0625 13.7805 15.307 13.025 14.375 13.025C13.443 13.025 12.6875 13.7805 12.6875 14.7125C12.6875 15.6445 13.443 16.4 14.375 16.4Z" stroke="#FFAF3C" stroke-width="1.2" stroke-linecap="round" stroke-linejoin="round"/>
<path id="Vector_4" d="M7.28745 7.2875H3.57495" stroke="#FFAF3C" stroke-width="1.2" stroke-linecap="round" stroke-linejoin="round"/>
<path id="Vector_5" d="M18.4249 7.2875H10.6624" stroke="#FFAF3C" stroke-width="1.2" stroke-linecap="round" stroke-linejoin="round"/>
<path id="Vector_6" d="M8.97485 8.97499C9.90683 8.97499 10.6624 8.21947 10.6624 7.28749C10.6624 6.35551 9.90683 5.59999 8.97485 5.59999C8.04287 5.59999 7.28735 6.35551 7.28735 7.28749C7.28735 8.21947 8.04287 8.97499 8.97485 8.97499Z" stroke="#FFAF3C" stroke-width="1.2" stroke-linecap="round" stroke-linejoin="round"/>
</g>
</svg>
