<svg width="25" height="24" viewBox="0 0 25 24" fill="none" xmlns="http://www.w3.org/2000/svg">
<g id="VideoCamera">
<path id="Vector" d="M17.5 10.5L22.75 7.5V16.5L17.5 13.5" stroke="#22BA68" stroke-width="1.5" stroke-linecap="round" stroke-linejoin="round"/>
<path id="Vector_2" d="M2.5 5.625H14.5C15.2956 5.625 16.0587 5.94107 16.6213 6.50368C17.1839 7.06629 17.5 7.82935 17.5 8.625V17.625C17.5 17.8239 17.421 18.0147 17.2803 18.1553C17.1397 18.296 16.9489 18.375 16.75 18.375H4.75C3.95435 18.375 3.19129 18.0589 2.62868 17.4963C2.06607 16.9337 1.75 16.1706 1.75 15.375V6.375C1.75 6.17609 1.82902 5.98532 1.96967 5.84467C2.11032 5.70402 2.30109 5.625 2.5 5.625V5.625Z" stroke="black" stroke-width="1.5" stroke-linecap="round" stroke-linejoin="round"/>
</g>
</svg>
