<svg width="25" height="24" viewBox="0 0 25 24" fill="none" xmlns="http://www.w3.org/2000/svg">
<g id="WifiHigh">
<path id="Vector" d="M9.46143 15.5683C10.3471 14.7223 11.5247 14.2502 12.7495 14.2502C13.9742 14.2502 15.1519 14.7223 16.0375 15.5683" stroke="black" stroke-width="2" stroke-linecap="round" stroke-linejoin="round"/>
<path id="Vector_2" d="M6.2793 12.3863C8.00895 10.6964 10.3312 9.75024 12.7493 9.75024C15.1675 9.75024 17.4897 10.6964 19.2194 12.3863" stroke="#22BA68" stroke-width="2" stroke-linecap="round" stroke-linejoin="round"/>
<path id="Vector_3" d="M3.09961 9.2043C5.67224 6.6705 9.13825 5.25024 12.7491 5.25024C16.36 5.25024 19.8261 6.6705 22.3987 9.2043" stroke="black" stroke-width="2" stroke-linecap="round" stroke-linejoin="round"/>
<path id="Vector_4" d="M12.75 19.875C13.3713 19.875 13.875 19.3713 13.875 18.75C13.875 18.1287 13.3713 17.625 12.75 17.625C12.1287 17.625 11.625 18.1287 11.625 18.75C11.625 19.3713 12.1287 19.875 12.75 19.875Z" fill="#22BA68"/>
</g>
</svg>
